solid CATIA STL
  facet normal  0.000000e+000 -1.000000e+000  0.000000e+000
    outer loop
      vertex -1.500000e+001 -2.500000e+000  4.000000e+000
      vertex -1.500000e+001 -2.500000e+000  0.000000e+000
      vertex  1.500000e+001 -2.500000e+000  4.000000e+000
    endloop
  endfacet
  facet normal  0.000000e+000 -1.000000e+000  -0.000000e+000
    outer loop
      vertex  1.500000e+001 -2.500000e+000  4.000000e+000
      vertex -1.500000e+001 -2.500000e+000  0.000000e+000
      vertex  1.500000e+001 -2.500000e+000  0.000000e+000
    endloop
  endfacet
  facet normal  0.000000e+000  0.000000e+000 -1.000000e+000
    outer loop
      vertex -5.500000e+001 -5.967002e+000  0.000000e+000
      vertex -1.823051e+001 -2.674444e+000  0.000000e+000
      vertex -1.983401e+001 -2.892023e+000  0.000000e+000
    endloop
  endfacet
  facet normal  0.000000e+000  0.000000e+000 -1.000000e+000
    outer loop
      vertex -5.500000e+001 -5.967002e+000  0.000000e+000
      vertex -1.983401e+001 -2.892023e+000  0.000000e+000
      vertex -2.142345e+001 -3.195747e+000  0.000000e+000
    endloop
  endfacet
  facet normal  0.000000e+000  0.000000e+000 -1.000000e+000
    outer loop
      vertex -5.500000e+001 -5.967002e+000  0.000000e+000
      vertex -2.142345e+001 -3.195747e+000  0.000000e+000
      vertex -2.299420e+001 -3.584732e+000  0.000000e+000
    endloop
  endfacet
  facet normal  0.000000e+000  0.000000e+000 -1.000000e+000
    outer loop
      vertex -5.500000e+001 -5.967002e+000  0.000000e+000
      vertex -2.299420e+001 -3.584732e+000  0.000000e+000
      vertex -2.454169e+001 -4.057847e+000  0.000000e+000
    endloop
  endfacet
  facet normal  0.000000e+000  0.000000e+000 -1.000000e+000
    outer loop
      vertex -5.500000e+001 -5.967002e+000  0.000000e+000
      vertex -2.454169e+001 -4.057847e+000  0.000000e+000
      vertex -2.606142e+001 -4.613714e+000  0.000000e+000
    endloop
  endfacet
  facet normal  0.000000e+000  0.000000e+000 -1.000000e+000
    outer loop
      vertex -5.500000e+001 -5.967002e+000  0.000000e+000
      vertex -2.606142e+001 -4.613714e+000  0.000000e+000
      vertex -2.754897e+001 -5.250717e+000  0.000000e+000
    endloop
  endfacet
  facet normal  0.000000e+000  0.000000e+000 -1.000000e+000
    outer loop
      vertex -5.500000e+001 -5.967002e+000  0.000000e+000
      vertex -2.754897e+001 -5.250717e+000  0.000000e+000
      vertex -2.900000e+001 -5.967002e+000  0.000000e+000
    endloop
  endfacet
  facet normal  0.000000e+000  0.000000e+000 -9.999999e-001
    outer loop
      vertex -1.500000e+001  2.500000e+000  0.000000e+000
      vertex  1.823051e+001 -2.674444e+000  0.000000e+000
      vertex  1.661761e+001 -2.543643e+000  0.000000e+000
    endloop
  endfacet
  facet normal  0.000000e+000  0.000000e+000 -1.000000e+000
    outer loop
      vertex -1.500000e+001  2.500000e+000  0.000000e+000
      vertex  1.661761e+001 -2.543643e+000  0.000000e+000
      vertex  1.500000e+001 -2.500000e+000  0.000000e+000
    endloop
  endfacet
  facet normal  0.000000e+000  0.000000e+000 -1.000000e+000
    outer loop
      vertex -1.500000e+001  2.500000e+000  0.000000e+000
      vertex  1.500000e+001 -2.500000e+000  0.000000e+000
      vertex -1.500000e+001 -2.500000e+000  0.000000e+000
    endloop
  endfacet
  facet normal  -0.000000e+000  0.000000e+000 -1.000000e+000
    outer loop
      vertex -1.500000e+001  2.500000e+000  0.000000e+000
      vertex -1.500000e+001 -2.500000e+000  0.000000e+000
      vertex -1.661761e+001 -2.543643e+000  0.000000e+000
    endloop
  endfacet
  facet normal  -0.000000e+000  0.000000e+000 -1.000000e+000
    outer loop
      vertex -1.500000e+001  2.500000e+000  0.000000e+000
      vertex -1.661761e+001 -2.543643e+000  0.000000e+000
      vertex -1.823051e+001 -2.674444e+000  0.000000e+000
    endloop
  endfacet
  facet normal  -0.000000e+000  0.000000e+000 -1.000000e+000
    outer loop
      vertex -1.500000e+001  2.500000e+000  0.000000e+000
      vertex -1.823051e+001 -2.674444e+000  0.000000e+000
      vertex -5.500000e+001 -5.967002e+000  0.000000e+000
    endloop
  endfacet
  facet normal  0.000000e+000  0.000000e+000 -1.000000e+000
    outer loop
      vertex  5.500000e+001 -5.967002e+000  0.000000e+000
      vertex  2.900000e+001 -5.967002e+000  0.000000e+000
      vertex  2.754897e+001 -5.250717e+000  0.000000e+000
    endloop
  endfacet
  facet normal  0.000000e+000  0.000000e+000 -1.000000e+000
    outer loop
      vertex  5.500000e+001 -5.967002e+000  0.000000e+000
      vertex  2.754897e+001 -5.250717e+000  0.000000e+000
      vertex  2.606142e+001 -4.613714e+000  0.000000e+000
    endloop
  endfacet
  facet normal  0.000000e+000  0.000000e+000 -1.000000e+000
    outer loop
      vertex  5.500000e+001 -5.967002e+000  0.000000e+000
      vertex  2.606142e+001 -4.613714e+000  0.000000e+000
      vertex  2.454169e+001 -4.057847e+000  0.000000e+000
    endloop
  endfacet
  facet normal  0.000000e+000  0.000000e+000 -1.000000e+000
    outer loop
      vertex  5.500000e+001 -5.967002e+000  0.000000e+000
      vertex  2.454169e+001 -4.057847e+000  0.000000e+000
      vertex  2.299420e+001 -3.584732e+000  0.000000e+000
    endloop
  endfacet
  facet normal  0.000000e+000  0.000000e+000 -1.000000e+000
    outer loop
      vertex  5.500000e+001 -5.967002e+000  0.000000e+000
      vertex  2.299420e+001 -3.584732e+000  0.000000e+000
      vertex  2.142345e+001 -3.195747e+000  0.000000e+000
    endloop
  endfacet
  facet normal  0.000000e+000  0.000000e+000 -1.000000e+000
    outer loop
      vertex  5.500000e+001 -5.967002e+000  0.000000e+000
      vertex  2.142345e+001 -3.195747e+000  0.000000e+000
      vertex  1.983401e+001 -2.892023e+000  0.000000e+000
    endloop
  endfacet
  facet normal  0.000000e+000  0.000000e+000 -1.000000e+000
    outer loop
      vertex  5.500000e+001 -5.967002e+000  0.000000e+000
      vertex  1.983401e+001 -2.892023e+000  0.000000e+000
      vertex  1.823051e+001 -2.674444e+000  0.000000e+000
    endloop
  endfacet
  facet normal  0.000000e+000  0.000000e+000 -1.000000e+000
    outer loop
      vertex  5.500000e+001 -5.967002e+000  0.000000e+000
      vertex  1.823051e+001 -2.674444e+000  0.000000e+000
      vertex -1.500000e+001  2.500000e+000  0.000000e+000
    endloop
  endfacet
  facet normal  0.000000e+000  0.000000e+000 -9.999999e-001
    outer loop
      vertex  5.500000e+001 -5.967002e+000  0.000000e+000
      vertex -1.500000e+001  2.500000e+000  0.000000e+000
      vertex  1.500000e+001  2.500000e+000  0.000000e+000
    endloop
  endfacet
  facet normal  0.000000e+000  0.000000e+000 -1.000000e+000
    outer loop
      vertex  5.500000e+001 -5.967002e+000  0.000000e+000
      vertex  1.500000e+001  2.500000e+000  0.000000e+000
      vertex  1.661761e+001  2.543643e+000  0.000000e+000
    endloop
  endfacet
  facet normal  0.000000e+000  0.000000e+000 -1.000000e+000
    outer loop
      vertex  5.500000e+001 -5.967002e+000  0.000000e+000
      vertex  1.661761e+001  2.543643e+000  0.000000e+000
      vertex  1.823051e+001  2.674444e+000  0.000000e+000
    endloop
  endfacet
  facet normal  0.000000e+000  0.000000e+000 -1.000000e+000
    outer loop
      vertex  5.500000e+001 -5.967002e+000  0.000000e+000
      vertex  1.823051e+001  2.674444e+000  0.000000e+000
      vertex  1.983401e+001  2.892023e+000  0.000000e+000
    endloop
  endfacet
  facet normal  0.000000e+000  0.000000e+000 -1.000000e+000
    outer loop
      vertex  5.500000e+001 -5.967002e+000  0.000000e+000
      vertex  1.983401e+001  2.892023e+000  0.000000e+000
      vertex  2.142345e+001  3.195747e+000  0.000000e+000
    endloop
  endfacet
  facet normal  0.000000e+000  0.000000e+000 -1.000000e+000
    outer loop
      vertex  5.500000e+001 -5.967002e+000  0.000000e+000
      vertex  2.142345e+001  3.195747e+000  0.000000e+000
      vertex  2.299420e+001  3.584732e+000  0.000000e+000
    endloop
  endfacet
  facet normal  0.000000e+000  0.000000e+000 -1.000000e+000
    outer loop
      vertex  5.500000e+001 -5.967002e+000  0.000000e+000
      vertex  2.299420e+001  3.584732e+000  0.000000e+000
      vertex  2.454169e+001  4.057847e+000  0.000000e+000
    endloop
  endfacet
  facet normal  0.000000e+000  0.000000e+000 -1.000000e+000
    outer loop
      vertex  5.500000e+001 -5.967002e+000  0.000000e+000
      vertex  2.454169e+001  4.057847e+000  0.000000e+000
      vertex  2.606142e+001  4.613714e+000  0.000000e+000
    endloop
  endfacet
  facet normal  0.000000e+000  0.000000e+000 -1.000000e+000
    outer loop
      vertex  5.500000e+001 -5.967002e+000  0.000000e+000
      vertex  2.606142e+001  4.613714e+000  0.000000e+000
      vertex  2.754897e+001  5.250717e+000  0.000000e+000
    endloop
  endfacet
  facet normal  0.000000e+000  0.000000e+000 -1.000000e+000
    outer loop
      vertex  5.500000e+001 -5.967002e+000  0.000000e+000
      vertex  2.754897e+001  5.250717e+000  0.000000e+000
      vertex  2.900000e+001  5.967002e+000  0.000000e+000
    endloop
  endfacet
  facet normal  0.000000e+000  0.000000e+000 -1.000000e+000
    outer loop
      vertex  5.500000e+001 -5.967002e+000  0.000000e+000
      vertex  2.900000e+001  5.967002e+000  0.000000e+000
      vertex  5.500000e+001  5.967002e+000  0.000000e+000
    endloop
  endfacet
  facet normal  0.000000e+000  0.000000e+000 -1.000000e+000
    outer loop
      vertex -5.500000e+001 -5.967002e+000  0.000000e+000
      vertex -5.500000e+001  5.967002e+000  0.000000e+000
      vertex -2.900000e+001  5.967002e+000  0.000000e+000
    endloop
  endfacet
  facet normal  0.000000e+000  -0.000000e+000 -1.000000e+000
    outer loop
      vertex -5.500000e+001 -5.967002e+000  0.000000e+000
      vertex -2.900000e+001  5.967002e+000  0.000000e+000
      vertex -2.754897e+001  5.250717e+000  0.000000e+000
    endloop
  endfacet
  facet normal  0.000000e+000  -0.000000e+000 -1.000000e+000
    outer loop
      vertex -5.500000e+001 -5.967002e+000  0.000000e+000
      vertex -2.754897e+001  5.250717e+000  0.000000e+000
      vertex -2.606142e+001  4.613714e+000  0.000000e+000
    endloop
  endfacet
  facet normal  0.000000e+000  -0.000000e+000 -1.000000e+000
    outer loop
      vertex -5.500000e+001 -5.967002e+000  0.000000e+000
      vertex -2.606142e+001  4.613714e+000  0.000000e+000
      vertex -2.454169e+001  4.057847e+000  0.000000e+000
    endloop
  endfacet
  facet normal  0.000000e+000  -0.000000e+000 -9.999999e-001
    outer loop
      vertex -5.500000e+001 -5.967002e+000  0.000000e+000
      vertex -2.454169e+001  4.057847e+000  0.000000e+000
      vertex -2.299420e+001  3.584732e+000  0.000000e+000
    endloop
  endfacet
  facet normal  0.000000e+000  -0.000000e+000 -1.000000e+000
    outer loop
      vertex -5.500000e+001 -5.967002e+000  0.000000e+000
      vertex -2.299420e+001  3.584732e+000  0.000000e+000
      vertex -2.142345e+001  3.195747e+000  0.000000e+000
    endloop
  endfacet
  facet normal  0.000000e+000  -0.000000e+000 -1.000000e+000
    outer loop
      vertex -5.500000e+001 -5.967002e+000  0.000000e+000
      vertex -2.142345e+001  3.195747e+000  0.000000e+000
      vertex -1.983401e+001  2.892023e+000  0.000000e+000
    endloop
  endfacet
  facet normal  0.000000e+000  -0.000000e+000 -1.000000e+000
    outer loop
      vertex -5.500000e+001 -5.967002e+000  0.000000e+000
      vertex -1.983401e+001  2.892023e+000  0.000000e+000
      vertex -1.823051e+001  2.674444e+000  0.000000e+000
    endloop
  endfacet
  facet normal  0.000000e+000  -0.000000e+000 -1.000000e+000
    outer loop
      vertex -5.500000e+001 -5.967002e+000  0.000000e+000
      vertex -1.823051e+001  2.674444e+000  0.000000e+000
      vertex -1.661761e+001  2.543643e+000  0.000000e+000
    endloop
  endfacet
  facet normal  0.000000e+000  -0.000000e+000 -1.000000e+000
    outer loop
      vertex -5.500000e+001 -5.967002e+000  0.000000e+000
      vertex -1.661761e+001  2.543643e+000  0.000000e+000
      vertex -1.500000e+001  2.500000e+000  0.000000e+000
    endloop
  endfacet
  facet normal  0.000000e+000  1.000000e+000  0.000000e+000
    outer loop
      vertex -1.500000e+001  2.500000e+000  4.000000e+000
      vertex  1.500000e+001  2.500000e+000  4.000000e+000
      vertex -1.500000e+001  2.500000e+000  0.000000e+000
    endloop
  endfacet
  facet normal  0.000000e+000  1.000000e+000  0.000000e+000
    outer loop
      vertex -1.500000e+001  2.500000e+000  0.000000e+000
      vertex  1.500000e+001  2.500000e+000  4.000000e+000
      vertex  1.500000e+001  2.500000e+000  0.000000e+000
    endloop
  endfacet
  facet normal  0.000000e+000  -0.000000e+000  1.000000e+000
    outer loop
      vertex -5.500000e+001 -5.967002e+000  4.000000e+000
      vertex -2.900000e+001 -5.967002e+000  4.000000e+000
      vertex -2.754897e+001 -5.250717e+000  4.000000e+000
    endloop
  endfacet
  facet normal  0.000000e+000  -0.000000e+000  1.000000e+000
    outer loop
      vertex -5.500000e+001 -5.967002e+000  4.000000e+000
      vertex -2.754897e+001 -5.250717e+000  4.000000e+000
      vertex -2.606142e+001 -4.613714e+000  4.000000e+000
    endloop
  endfacet
  facet normal  0.000000e+000  -0.000000e+000  1.000000e+000
    outer loop
      vertex -5.500000e+001 -5.967002e+000  4.000000e+000
      vertex -2.606142e+001 -4.613714e+000  4.000000e+000
      vertex -2.454169e+001 -4.057847e+000  4.000000e+000
    endloop
  endfacet
  facet normal  0.000000e+000  -0.000000e+000  1.000000e+000
    outer loop
      vertex -5.500000e+001 -5.967002e+000  4.000000e+000
      vertex -2.454169e+001 -4.057847e+000  4.000000e+000
      vertex -2.299420e+001 -3.584732e+000  4.000000e+000
    endloop
  endfacet
  facet normal  0.000000e+000  -0.000000e+000  1.000000e+000
    outer loop
      vertex -5.500000e+001 -5.967002e+000  4.000000e+000
      vertex -2.299420e+001 -3.584732e+000  4.000000e+000
      vertex -2.142345e+001 -3.195747e+000  4.000000e+000
    endloop
  endfacet
  facet normal  0.000000e+000  -0.000000e+000  1.000000e+000
    outer loop
      vertex -5.500000e+001 -5.967002e+000  4.000000e+000
      vertex -2.142345e+001 -3.195747e+000  4.000000e+000
      vertex -1.983401e+001 -2.892023e+000  4.000000e+000
    endloop
  endfacet
  facet normal  0.000000e+000  -0.000000e+000  1.000000e+000
    outer loop
      vertex -5.500000e+001 -5.967002e+000  4.000000e+000
      vertex -1.983401e+001 -2.892023e+000  4.000000e+000
      vertex -1.823051e+001 -2.674444e+000  4.000000e+000
    endloop
  endfacet
  facet normal  0.000000e+000  0.000000e+000  1.000000e+000
    outer loop
      vertex -1.500000e+001  2.500000e+000  4.000000e+000
      vertex -5.500000e+001 -5.967002e+000  4.000000e+000
      vertex -1.823051e+001 -2.674444e+000  4.000000e+000
    endloop
  endfacet
  facet normal  0.000000e+000  0.000000e+000  1.000000e+000
    outer loop
      vertex -1.500000e+001  2.500000e+000  4.000000e+000
      vertex -1.823051e+001 -2.674444e+000  4.000000e+000
      vertex -1.661761e+001 -2.543643e+000  4.000000e+000
    endloop
  endfacet
  facet normal  0.000000e+000  0.000000e+000  1.000000e+000
    outer loop
      vertex -1.500000e+001  2.500000e+000  4.000000e+000
      vertex -1.661761e+001 -2.543643e+000  4.000000e+000
      vertex -1.500000e+001 -2.500000e+000  4.000000e+000
    endloop
  endfacet
  facet normal  0.000000e+000  0.000000e+000  1.000000e+000
    outer loop
      vertex -1.500000e+001  2.500000e+000  4.000000e+000
      vertex -1.500000e+001 -2.500000e+000  4.000000e+000
      vertex  1.500000e+001 -2.500000e+000  4.000000e+000
    endloop
  endfacet
  facet normal  -0.000000e+000  -0.000000e+000  1.000000e+000
    outer loop
      vertex -1.500000e+001  2.500000e+000  4.000000e+000
      vertex  1.500000e+001 -2.500000e+000  4.000000e+000
      vertex  1.661761e+001 -2.543643e+000  4.000000e+000
    endloop
  endfacet
  facet normal  -0.000000e+000  -0.000000e+000  9.999999e-001
    outer loop
      vertex -1.500000e+001  2.500000e+000  4.000000e+000
      vertex  1.661761e+001 -2.543643e+000  4.000000e+000
      vertex  1.823051e+001 -2.674444e+000  4.000000e+000
    endloop
  endfacet
  facet normal  0.000000e+000  0.000000e+000  1.000000e+000
    outer loop
      vertex  5.500000e+001 -5.967002e+000  4.000000e+000
      vertex  5.500000e+001  5.967002e+000  4.000000e+000
      vertex  2.900000e+001  5.967002e+000  4.000000e+000
    endloop
  endfacet
  facet normal  0.000000e+000  0.000000e+000  1.000000e+000
    outer loop
      vertex  5.500000e+001 -5.967002e+000  4.000000e+000
      vertex  2.900000e+001  5.967002e+000  4.000000e+000
      vertex  2.754897e+001  5.250717e+000  4.000000e+000
    endloop
  endfacet
  facet normal  0.000000e+000  0.000000e+000  1.000000e+000
    outer loop
      vertex  5.500000e+001 -5.967002e+000  4.000000e+000
      vertex  2.754897e+001  5.250717e+000  4.000000e+000
      vertex  2.606142e+001  4.613714e+000  4.000000e+000
    endloop
  endfacet
  facet normal  0.000000e+000  0.000000e+000  1.000000e+000
    outer loop
      vertex  5.500000e+001 -5.967002e+000  4.000000e+000
      vertex  2.606142e+001  4.613714e+000  4.000000e+000
      vertex  2.454169e+001  4.057847e+000  4.000000e+000
    endloop
  endfacet
  facet normal  0.000000e+000  0.000000e+000  9.999999e-001
    outer loop
      vertex  5.500000e+001 -5.967002e+000  4.000000e+000
      vertex  2.454169e+001  4.057847e+000  4.000000e+000
      vertex  2.299420e+001  3.584732e+000  4.000000e+000
    endloop
  endfacet
  facet normal  0.000000e+000  0.000000e+000  1.000000e+000
    outer loop
      vertex  5.500000e+001 -5.967002e+000  4.000000e+000
      vertex  2.299420e+001  3.584732e+000  4.000000e+000
      vertex  2.142345e+001  3.195747e+000  4.000000e+000
    endloop
  endfacet
  facet normal  0.000000e+000  0.000000e+000  1.000000e+000
    outer loop
      vertex  5.500000e+001 -5.967002e+000  4.000000e+000
      vertex  2.142345e+001  3.195747e+000  4.000000e+000
      vertex  1.983401e+001  2.892023e+000  4.000000e+000
    endloop
  endfacet
  facet normal  0.000000e+000  0.000000e+000  1.000000e+000
    outer loop
      vertex  5.500000e+001 -5.967002e+000  4.000000e+000
      vertex  1.983401e+001  2.892023e+000  4.000000e+000
      vertex  1.823051e+001  2.674444e+000  4.000000e+000
    endloop
  endfacet
  facet normal  0.000000e+000  0.000000e+000  1.000000e+000
    outer loop
      vertex  5.500000e+001 -5.967002e+000  4.000000e+000
      vertex  1.823051e+001  2.674444e+000  4.000000e+000
      vertex  1.661761e+001  2.543643e+000  4.000000e+000
    endloop
  endfacet
  facet normal  0.000000e+000  0.000000e+000  1.000000e+000
    outer loop
      vertex  5.500000e+001 -5.967002e+000  4.000000e+000
      vertex  1.661761e+001  2.543643e+000  4.000000e+000
      vertex  1.500000e+001  2.500000e+000  4.000000e+000
    endloop
  endfacet
  facet normal  0.000000e+000  0.000000e+000  9.999999e-001
    outer loop
      vertex  5.500000e+001 -5.967002e+000  4.000000e+000
      vertex  1.500000e+001  2.500000e+000  4.000000e+000
      vertex -1.500000e+001  2.500000e+000  4.000000e+000
    endloop
  endfacet
  facet normal  0.000000e+000  0.000000e+000  9.999999e-001
    outer loop
      vertex  5.500000e+001 -5.967002e+000  4.000000e+000
      vertex -1.500000e+001  2.500000e+000  4.000000e+000
      vertex  1.823051e+001 -2.674444e+000  4.000000e+000
    endloop
  endfacet
  facet normal  0.000000e+000  0.000000e+000  1.000000e+000
    outer loop
      vertex  5.500000e+001 -5.967002e+000  4.000000e+000
      vertex  1.823051e+001 -2.674444e+000  4.000000e+000
      vertex  1.983401e+001 -2.892023e+000  4.000000e+000
    endloop
  endfacet
  facet normal  0.000000e+000  0.000000e+000  1.000000e+000
    outer loop
      vertex  5.500000e+001 -5.967002e+000  4.000000e+000
      vertex  1.983401e+001 -2.892023e+000  4.000000e+000
      vertex  2.142345e+001 -3.195747e+000  4.000000e+000
    endloop
  endfacet
  facet normal  0.000000e+000  0.000000e+000  1.000000e+000
    outer loop
      vertex  5.500000e+001 -5.967002e+000  4.000000e+000
      vertex  2.142345e+001 -3.195747e+000  4.000000e+000
      vertex  2.299420e+001 -3.584732e+000  4.000000e+000
    endloop
  endfacet
  facet normal  0.000000e+000  0.000000e+000  1.000000e+000
    outer loop
      vertex  5.500000e+001 -5.967002e+000  4.000000e+000
      vertex  2.299420e+001 -3.584732e+000  4.000000e+000
      vertex  2.454169e+001 -4.057847e+000  4.000000e+000
    endloop
  endfacet
  facet normal  0.000000e+000  0.000000e+000  1.000000e+000
    outer loop
      vertex  5.500000e+001 -5.967002e+000  4.000000e+000
      vertex  2.454169e+001 -4.057847e+000  4.000000e+000
      vertex  2.606142e+001 -4.613714e+000  4.000000e+000
    endloop
  endfacet
  facet normal  0.000000e+000  0.000000e+000  1.000000e+000
    outer loop
      vertex  5.500000e+001 -5.967002e+000  4.000000e+000
      vertex  2.606142e+001 -4.613714e+000  4.000000e+000
      vertex  2.754897e+001 -5.250717e+000  4.000000e+000
    endloop
  endfacet
  facet normal  0.000000e+000  0.000000e+000  1.000000e+000
    outer loop
      vertex  5.500000e+001 -5.967002e+000  4.000000e+000
      vertex  2.754897e+001 -5.250717e+000  4.000000e+000
      vertex  2.900000e+001 -5.967002e+000  4.000000e+000
    endloop
  endfacet
  facet normal  0.000000e+000  0.000000e+000  1.000000e+000
    outer loop
      vertex -5.500000e+001 -5.967002e+000  4.000000e+000
      vertex -1.500000e+001  2.500000e+000  4.000000e+000
      vertex -1.661761e+001  2.543643e+000  4.000000e+000
    endloop
  endfacet
  facet normal  0.000000e+000  0.000000e+000  1.000000e+000
    outer loop
      vertex -5.500000e+001 -5.967002e+000  4.000000e+000
      vertex -1.661761e+001  2.543643e+000  4.000000e+000
      vertex -1.823051e+001  2.674444e+000  4.000000e+000
    endloop
  endfacet
  facet normal  0.000000e+000  0.000000e+000  1.000000e+000
    outer loop
      vertex -5.500000e+001 -5.967002e+000  4.000000e+000
      vertex -1.823051e+001  2.674444e+000  4.000000e+000
      vertex -1.983401e+001  2.892023e+000  4.000000e+000
    endloop
  endfacet
  facet normal  0.000000e+000  0.000000e+000  1.000000e+000
    outer loop
      vertex -5.500000e+001 -5.967002e+000  4.000000e+000
      vertex -1.983401e+001  2.892023e+000  4.000000e+000
      vertex -2.142345e+001  3.195747e+000  4.000000e+000
    endloop
  endfacet
  facet normal  0.000000e+000  0.000000e+000  1.000000e+000
    outer loop
      vertex -5.500000e+001 -5.967002e+000  4.000000e+000
      vertex -2.142345e+001  3.195747e+000  4.000000e+000
      vertex -2.299420e+001  3.584732e+000  4.000000e+000
    endloop
  endfacet
  facet normal  0.000000e+000  0.000000e+000  1.000000e+000
    outer loop
      vertex -5.500000e+001 -5.967002e+000  4.000000e+000
      vertex -2.299420e+001  3.584732e+000  4.000000e+000
      vertex -2.454169e+001  4.057847e+000  4.000000e+000
    endloop
  endfacet
  facet normal  0.000000e+000  0.000000e+000  1.000000e+000
    outer loop
      vertex -5.500000e+001 -5.967002e+000  4.000000e+000
      vertex -2.454169e+001  4.057847e+000  4.000000e+000
      vertex -2.606142e+001  4.613714e+000  4.000000e+000
    endloop
  endfacet
  facet normal  0.000000e+000  0.000000e+000  1.000000e+000
    outer loop
      vertex -5.500000e+001 -5.967002e+000  4.000000e+000
      vertex -2.606142e+001  4.613714e+000  4.000000e+000
      vertex -2.754897e+001  5.250717e+000  4.000000e+000
    endloop
  endfacet
  facet normal  0.000000e+000  0.000000e+000  1.000000e+000
    outer loop
      vertex -5.500000e+001 -5.967002e+000  4.000000e+000
      vertex -2.754897e+001  5.250717e+000  4.000000e+000
      vertex -2.900000e+001  5.967002e+000  4.000000e+000
    endloop
  endfacet
  facet normal  0.000000e+000  0.000000e+000  1.000000e+000
    outer loop
      vertex -5.500000e+001 -5.967002e+000  4.000000e+000
      vertex -2.900000e+001  5.967002e+000  4.000000e+000
      vertex -5.500000e+001  5.967002e+000  4.000000e+000
    endloop
  endfacet
  facet normal  0.000000e+000  1.000000e+000  0.000000e+000
    outer loop
      vertex -5.500000e+001  5.967002e+000  4.000000e+000
      vertex -2.900000e+001  5.967002e+000  4.000000e+000
      vertex -5.500000e+001  5.967002e+000  0.000000e+000
    endloop
  endfacet
  facet normal  0.000000e+000  1.000000e+000  0.000000e+000
    outer loop
      vertex -5.500000e+001  5.967002e+000  0.000000e+000
      vertex -2.900000e+001  5.967002e+000  4.000000e+000
      vertex -2.900000e+001  5.967002e+000  0.000000e+000
    endloop
  endfacet
  facet normal  0.000000e+000 -1.000000e+000  0.000000e+000
    outer loop
      vertex -5.500000e+001 -5.967002e+000  4.000000e+000
      vertex -5.500000e+001 -5.967002e+000  0.000000e+000
      vertex -2.900000e+001 -5.967002e+000  4.000000e+000
    endloop
  endfacet
  facet normal  0.000000e+000 -1.000000e+000  -0.000000e+000
    outer loop
      vertex -2.900000e+001 -5.967002e+000  4.000000e+000
      vertex -5.500000e+001 -5.967002e+000  0.000000e+000
      vertex -2.900000e+001 -5.967002e+000  0.000000e+000
    endloop
  endfacet
  facet normal -1.000000e+000  0.000000e+000  0.000000e+000
    outer loop
      vertex -5.500000e+001  5.967002e+000  4.000000e+000
      vertex -5.500000e+001  5.967002e+000  0.000000e+000
      vertex -5.500000e+001 -5.967002e+000  4.000000e+000
    endloop
  endfacet
  facet normal -1.000000e+000  0.000000e+000  0.000000e+000
    outer loop
      vertex -5.500000e+001 -5.967002e+000  4.000000e+000
      vertex -5.500000e+001  5.967002e+000  0.000000e+000
      vertex -5.500000e+001 -5.967002e+000  0.000000e+000
    endloop
  endfacet
  facet normal  2.923711e-001  9.563049e-001  -0.000000e+000
    outer loop
      vertex -2.299420e+001  3.584732e+000  4.000000e+000
      vertex -2.454169e+001  4.057847e+000  0.000000e+000
      vertex -2.454169e+001  4.057847e+000  4.000000e+000
    endloop
  endfacet
  facet normal  3.435103e-001  9.391489e-001  0.000000e+000
    outer loop
      vertex -2.454169e+001  4.057847e+000  4.000000e+000
      vertex -2.454169e+001  4.057847e+000  0.000000e+000
      vertex -2.606142e+001  4.613714e+000  0.000000e+000
    endloop
  endfacet
  facet normal  3.435103e-001  9.391489e-001  -0.000000e+000
    outer loop
      vertex -2.454169e+001  4.057847e+000  4.000000e+000
      vertex -2.606142e+001  4.613714e+000  0.000000e+000
      vertex -2.606142e+001  4.613714e+000  4.000000e+000
    endloop
  endfacet
  facet normal  3.936497e-001  9.192605e-001  0.000000e+000
    outer loop
      vertex -2.606142e+001  4.613714e+000  4.000000e+000
      vertex -2.606142e+001  4.613714e+000  0.000000e+000
      vertex -2.754897e+001  5.250717e+000  0.000000e+000
    endloop
  endfacet
  facet normal  3.936497e-001  9.192605e-001  -0.000000e+000
    outer loop
      vertex -2.606142e+001  4.613714e+000  4.000000e+000
      vertex -2.754897e+001  5.250717e+000  0.000000e+000
      vertex -2.754897e+001  5.250717e+000  4.000000e+000
    endloop
  endfacet
  facet normal  4.426437e-001  8.966976e-001  0.000000e+000
    outer loop
      vertex -2.754897e+001  5.250717e+000  4.000000e+000
      vertex -2.754897e+001  5.250717e+000  0.000000e+000
      vertex -2.900000e+001  5.967002e+000  0.000000e+000
    endloop
  endfacet
  facet normal  4.426437e-001  8.966976e-001  -0.000000e+000
    outer loop
      vertex -2.754897e+001  5.250717e+000  4.000000e+000
      vertex -2.900000e+001  5.967002e+000  0.000000e+000
      vertex -2.900000e+001  5.967002e+000  4.000000e+000
    endloop
  endfacet
  facet normal  2.923711e-001  9.563049e-001  0.000000e+000
    outer loop
      vertex -2.454169e+001  4.057847e+000  0.000000e+000
      vertex -2.299420e+001  3.584732e+000  4.000000e+000
      vertex -2.299420e+001  3.584732e+000  0.000000e+000
    endloop
  endfacet
  facet normal  2.403818e-001  9.706784e-001  -0.000000e+000
    outer loop
      vertex -2.299420e+001  3.584732e+000  0.000000e+000
      vertex -2.299420e+001  3.584732e+000  4.000000e+000
      vertex -2.142345e+001  3.195747e+000  4.000000e+000
    endloop
  endfacet
  facet normal  2.403818e-001  9.706784e-001  0.000000e+000
    outer loop
      vertex -2.299420e+001  3.584732e+000  0.000000e+000
      vertex -2.142345e+001  3.195747e+000  4.000000e+000
      vertex -2.142345e+001  3.195747e+000  0.000000e+000
    endloop
  endfacet
  facet normal  1.876928e-001  9.822278e-001  -0.000000e+000
    outer loop
      vertex -2.142345e+001  3.195747e+000  0.000000e+000
      vertex -2.142345e+001  3.195747e+000  4.000000e+000
      vertex -1.983401e+001  2.892023e+000  4.000000e+000
    endloop
  endfacet
  facet normal  1.876928e-001  9.822278e-001  0.000000e+000
    outer loop
      vertex -2.142345e+001  3.195747e+000  0.000000e+000
      vertex -1.983401e+001  2.892023e+000  4.000000e+000
      vertex -1.983401e+001  2.892023e+000  0.000000e+000
    endloop
  endfacet
  facet normal  1.344576e-001  9.909194e-001  -0.000000e+000
    outer loop
      vertex -1.983401e+001  2.892023e+000  0.000000e+000
      vertex -1.983401e+001  2.892023e+000  4.000000e+000
      vertex -1.823051e+001  2.674444e+000  4.000000e+000
    endloop
  endfacet
  facet normal  1.344576e-001  9.909194e-001  0.000000e+000
    outer loop
      vertex -1.983401e+001  2.892023e+000  0.000000e+000
      vertex -1.823051e+001  2.674444e+000  4.000000e+000
      vertex -1.823051e+001  2.674444e+000  0.000000e+000
    endloop
  endfacet
  facet normal  8.083146e-002  9.967278e-001  -0.000000e+000
    outer loop
      vertex -1.823051e+001  2.674444e+000  0.000000e+000
      vertex -1.823051e+001  2.674444e+000  4.000000e+000
      vertex -1.661761e+001  2.543643e+000  4.000000e+000
    endloop
  endfacet
  facet normal  8.083146e-002  9.967278e-001  0.000000e+000
    outer loop
      vertex -1.823051e+001  2.674444e+000  0.000000e+000
      vertex -1.661761e+001  2.543643e+000  4.000000e+000
      vertex -1.661761e+001  2.543643e+000  0.000000e+000
    endloop
  endfacet
  facet normal  2.696998e-002  9.996362e-001  -0.000000e+000
    outer loop
      vertex -1.661761e+001  2.543643e+000  0.000000e+000
      vertex -1.661761e+001  2.543643e+000  4.000000e+000
      vertex -1.500000e+001  2.500000e+000  4.000000e+000
    endloop
  endfacet
  facet normal  2.696998e-002  9.996362e-001  0.000000e+000
    outer loop
      vertex -1.661761e+001  2.543643e+000  0.000000e+000
      vertex -1.500000e+001  2.500000e+000  4.000000e+000
      vertex -1.500000e+001  2.500000e+000  0.000000e+000
    endloop
  endfacet
  facet normal  2.923711e-001 -9.563049e-001  0.000000e+000
    outer loop
      vertex -2.299420e+001 -3.584732e+000  0.000000e+000
      vertex -2.454169e+001 -4.057847e+000  4.000000e+000
      vertex -2.454169e+001 -4.057847e+000  0.000000e+000
    endloop
  endfacet
  facet normal  3.435103e-001 -9.391489e-001  0.000000e+000
    outer loop
      vertex -2.454169e+001 -4.057847e+000  0.000000e+000
      vertex -2.454169e+001 -4.057847e+000  4.000000e+000
      vertex -2.606142e+001 -4.613714e+000  4.000000e+000
    endloop
  endfacet
  facet normal  3.435103e-001 -9.391489e-001  0.000000e+000
    outer loop
      vertex -2.454169e+001 -4.057847e+000  0.000000e+000
      vertex -2.606142e+001 -4.613714e+000  4.000000e+000
      vertex -2.606142e+001 -4.613714e+000  0.000000e+000
    endloop
  endfacet
  facet normal  3.936497e-001 -9.192605e-001  0.000000e+000
    outer loop
      vertex -2.606142e+001 -4.613714e+000  0.000000e+000
      vertex -2.606142e+001 -4.613714e+000  4.000000e+000
      vertex -2.754897e+001 -5.250717e+000  4.000000e+000
    endloop
  endfacet
  facet normal  3.936497e-001 -9.192605e-001  0.000000e+000
    outer loop
      vertex -2.606142e+001 -4.613714e+000  0.000000e+000
      vertex -2.754897e+001 -5.250717e+000  4.000000e+000
      vertex -2.754897e+001 -5.250717e+000  0.000000e+000
    endloop
  endfacet
  facet normal  4.426437e-001 -8.966976e-001  0.000000e+000
    outer loop
      vertex -2.754897e+001 -5.250717e+000  0.000000e+000
      vertex -2.754897e+001 -5.250717e+000  4.000000e+000
      vertex -2.900000e+001 -5.967002e+000  4.000000e+000
    endloop
  endfacet
  facet normal  4.426437e-001 -8.966976e-001  0.000000e+000
    outer loop
      vertex -2.754897e+001 -5.250717e+000  0.000000e+000
      vertex -2.900000e+001 -5.967002e+000  4.000000e+000
      vertex -2.900000e+001 -5.967002e+000  0.000000e+000
    endloop
  endfacet
  facet normal  2.923711e-001 -9.563049e-001  0.000000e+000
    outer loop
      vertex -2.454169e+001 -4.057847e+000  4.000000e+000
      vertex -2.299420e+001 -3.584732e+000  0.000000e+000
      vertex -2.299420e+001 -3.584732e+000  4.000000e+000
    endloop
  endfacet
  facet normal  2.403818e-001 -9.706784e-001  0.000000e+000
    outer loop
      vertex -2.299420e+001 -3.584732e+000  4.000000e+000
      vertex -2.299420e+001 -3.584732e+000  0.000000e+000
      vertex -2.142345e+001 -3.195747e+000  0.000000e+000
    endloop
  endfacet
  facet normal  2.403818e-001 -9.706784e-001  0.000000e+000
    outer loop
      vertex -2.299420e+001 -3.584732e+000  4.000000e+000
      vertex -2.142345e+001 -3.195747e+000  0.000000e+000
      vertex -2.142345e+001 -3.195747e+000  4.000000e+000
    endloop
  endfacet
  facet normal  1.876928e-001 -9.822278e-001  0.000000e+000
    outer loop
      vertex -2.142345e+001 -3.195747e+000  4.000000e+000
      vertex -2.142345e+001 -3.195747e+000  0.000000e+000
      vertex -1.983401e+001 -2.892023e+000  0.000000e+000
    endloop
  endfacet
  facet normal  1.876928e-001 -9.822278e-001  0.000000e+000
    outer loop
      vertex -2.142345e+001 -3.195747e+000  4.000000e+000
      vertex -1.983401e+001 -2.892023e+000  0.000000e+000
      vertex -1.983401e+001 -2.892023e+000  4.000000e+000
    endloop
  endfacet
  facet normal  1.344576e-001 -9.909194e-001  0.000000e+000
    outer loop
      vertex -1.983401e+001 -2.892023e+000  4.000000e+000
      vertex -1.983401e+001 -2.892023e+000  0.000000e+000
      vertex -1.823051e+001 -2.674444e+000  0.000000e+000
    endloop
  endfacet
  facet normal  1.344576e-001 -9.909194e-001  0.000000e+000
    outer loop
      vertex -1.983401e+001 -2.892023e+000  4.000000e+000
      vertex -1.823051e+001 -2.674444e+000  0.000000e+000
      vertex -1.823051e+001 -2.674444e+000  4.000000e+000
    endloop
  endfacet
  facet normal  8.083146e-002 -9.967278e-001  0.000000e+000
    outer loop
      vertex -1.823051e+001 -2.674444e+000  4.000000e+000
      vertex -1.823051e+001 -2.674444e+000  0.000000e+000
      vertex -1.661761e+001 -2.543643e+000  0.000000e+000
    endloop
  endfacet
  facet normal  8.083146e-002 -9.967278e-001  0.000000e+000
    outer loop
      vertex -1.823051e+001 -2.674444e+000  4.000000e+000
      vertex -1.661761e+001 -2.543643e+000  0.000000e+000
      vertex -1.661761e+001 -2.543643e+000  4.000000e+000
    endloop
  endfacet
  facet normal  2.696998e-002 -9.996362e-001  0.000000e+000
    outer loop
      vertex -1.661761e+001 -2.543643e+000  4.000000e+000
      vertex -1.661761e+001 -2.543643e+000  0.000000e+000
      vertex -1.500000e+001 -2.500000e+000  0.000000e+000
    endloop
  endfacet
  facet normal  2.696998e-002 -9.996362e-001  0.000000e+000
    outer loop
      vertex -1.661761e+001 -2.543643e+000  4.000000e+000
      vertex -1.500000e+001 -2.500000e+000  0.000000e+000
      vertex -1.500000e+001 -2.500000e+000  4.000000e+000
    endloop
  endfacet
  facet normal  0.000000e+000  1.000000e+000  0.000000e+000
    outer loop
      vertex  2.900000e+001  5.967002e+000  4.000000e+000
      vertex  5.500000e+001  5.967002e+000  4.000000e+000
      vertex  2.900000e+001  5.967002e+000  0.000000e+000
    endloop
  endfacet
  facet normal  0.000000e+000  1.000000e+000  0.000000e+000
    outer loop
      vertex  2.900000e+001  5.967002e+000  0.000000e+000
      vertex  5.500000e+001  5.967002e+000  4.000000e+000
      vertex  5.500000e+001  5.967002e+000  0.000000e+000
    endloop
  endfacet
  facet normal  0.000000e+000 -1.000000e+000  0.000000e+000
    outer loop
      vertex  2.900000e+001 -5.967002e+000  4.000000e+000
      vertex  2.900000e+001 -5.967002e+000  0.000000e+000
      vertex  5.500000e+001 -5.967002e+000  4.000000e+000
    endloop
  endfacet
  facet normal  0.000000e+000 -1.000000e+000  -0.000000e+000
    outer loop
      vertex  5.500000e+001 -5.967002e+000  4.000000e+000
      vertex  2.900000e+001 -5.967002e+000  0.000000e+000
      vertex  5.500000e+001 -5.967002e+000  0.000000e+000
    endloop
  endfacet
  facet normal  1.000000e+000  -0.000000e+000  0.000000e+000
    outer loop
      vertex  5.500000e+001  5.967002e+000  4.000000e+000
      vertex  5.500000e+001 -5.967002e+000  4.000000e+000
      vertex  5.500000e+001  5.967002e+000  0.000000e+000
    endloop
  endfacet
  facet normal  1.000000e+000  0.000000e+000  0.000000e+000
    outer loop
      vertex  5.500000e+001  5.967002e+000  0.000000e+000
      vertex  5.500000e+001 -5.967002e+000  4.000000e+000
      vertex  5.500000e+001 -5.967002e+000  0.000000e+000
    endloop
  endfacet
  facet normal -2.923711e-001 -9.563049e-001  0.000000e+000
    outer loop
      vertex  2.299420e+001 -3.584732e+000  4.000000e+000
      vertex  2.454169e+001 -4.057847e+000  0.000000e+000
      vertex  2.454169e+001 -4.057847e+000  4.000000e+000
    endloop
  endfacet
  facet normal -3.435103e-001 -9.391489e-001  -0.000000e+000
    outer loop
      vertex  2.454169e+001 -4.057847e+000  4.000000e+000
      vertex  2.454169e+001 -4.057847e+000  0.000000e+000
      vertex  2.606142e+001 -4.613714e+000  0.000000e+000
    endloop
  endfacet
  facet normal -3.435103e-001 -9.391489e-001  0.000000e+000
    outer loop
      vertex  2.454169e+001 -4.057847e+000  4.000000e+000
      vertex  2.606142e+001 -4.613714e+000  0.000000e+000
      vertex  2.606142e+001 -4.613714e+000  4.000000e+000
    endloop
  endfacet
  facet normal -3.936497e-001 -9.192605e-001  -0.000000e+000
    outer loop
      vertex  2.606142e+001 -4.613714e+000  4.000000e+000
      vertex  2.606142e+001 -4.613714e+000  0.000000e+000
      vertex  2.754897e+001 -5.250717e+000  0.000000e+000
    endloop
  endfacet
  facet normal -3.936497e-001 -9.192605e-001  0.000000e+000
    outer loop
      vertex  2.606142e+001 -4.613714e+000  4.000000e+000
      vertex  2.754897e+001 -5.250717e+000  0.000000e+000
      vertex  2.754897e+001 -5.250717e+000  4.000000e+000
    endloop
  endfacet
  facet normal -4.426437e-001 -8.966976e-001  -0.000000e+000
    outer loop
      vertex  2.754897e+001 -5.250717e+000  4.000000e+000
      vertex  2.754897e+001 -5.250717e+000  0.000000e+000
      vertex  2.900000e+001 -5.967002e+000  0.000000e+000
    endloop
  endfacet
  facet normal -4.426437e-001 -8.966976e-001  0.000000e+000
    outer loop
      vertex  2.754897e+001 -5.250717e+000  4.000000e+000
      vertex  2.900000e+001 -5.967002e+000  0.000000e+000
      vertex  2.900000e+001 -5.967002e+000  4.000000e+000
    endloop
  endfacet
  facet normal -2.923711e-001 -9.563049e-001  -0.000000e+000
    outer loop
      vertex  2.454169e+001 -4.057847e+000  0.000000e+000
      vertex  2.299420e+001 -3.584732e+000  4.000000e+000
      vertex  2.299420e+001 -3.584732e+000  0.000000e+000
    endloop
  endfacet
  facet normal -2.403818e-001 -9.706784e-001  0.000000e+000
    outer loop
      vertex  2.299420e+001 -3.584732e+000  0.000000e+000
      vertex  2.299420e+001 -3.584732e+000  4.000000e+000
      vertex  2.142345e+001 -3.195747e+000  4.000000e+000
    endloop
  endfacet
  facet normal -2.403818e-001 -9.706784e-001  -0.000000e+000
    outer loop
      vertex  2.299420e+001 -3.584732e+000  0.000000e+000
      vertex  2.142345e+001 -3.195747e+000  4.000000e+000
      vertex  2.142345e+001 -3.195747e+000  0.000000e+000
    endloop
  endfacet
  facet normal -1.876928e-001 -9.822278e-001  0.000000e+000
    outer loop
      vertex  2.142345e+001 -3.195747e+000  0.000000e+000
      vertex  2.142345e+001 -3.195747e+000  4.000000e+000
      vertex  1.983401e+001 -2.892023e+000  4.000000e+000
    endloop
  endfacet
  facet normal -1.876928e-001 -9.822278e-001  -0.000000e+000
    outer loop
      vertex  2.142345e+001 -3.195747e+000  0.000000e+000
      vertex  1.983401e+001 -2.892023e+000  4.000000e+000
      vertex  1.983401e+001 -2.892023e+000  0.000000e+000
    endloop
  endfacet
  facet normal -1.344576e-001 -9.909194e-001  0.000000e+000
    outer loop
      vertex  1.983401e+001 -2.892023e+000  0.000000e+000
      vertex  1.983401e+001 -2.892023e+000  4.000000e+000
      vertex  1.823051e+001 -2.674444e+000  4.000000e+000
    endloop
  endfacet
  facet normal -1.344576e-001 -9.909194e-001  -0.000000e+000
    outer loop
      vertex  1.983401e+001 -2.892023e+000  0.000000e+000
      vertex  1.823051e+001 -2.674444e+000  4.000000e+000
      vertex  1.823051e+001 -2.674444e+000  0.000000e+000
    endloop
  endfacet
  facet normal -8.083146e-002 -9.967278e-001  0.000000e+000
    outer loop
      vertex  1.823051e+001 -2.674444e+000  0.000000e+000
      vertex  1.823051e+001 -2.674444e+000  4.000000e+000
      vertex  1.661761e+001 -2.543643e+000  4.000000e+000
    endloop
  endfacet
  facet normal -8.083146e-002 -9.967278e-001  -0.000000e+000
    outer loop
      vertex  1.823051e+001 -2.674444e+000  0.000000e+000
      vertex  1.661761e+001 -2.543643e+000  4.000000e+000
      vertex  1.661761e+001 -2.543643e+000  0.000000e+000
    endloop
  endfacet
  facet normal -2.696998e-002 -9.996362e-001  0.000000e+000
    outer loop
      vertex  1.661761e+001 -2.543643e+000  0.000000e+000
      vertex  1.661761e+001 -2.543643e+000  4.000000e+000
      vertex  1.500000e+001 -2.500000e+000  4.000000e+000
    endloop
  endfacet
  facet normal -2.696998e-002 -9.996362e-001  -0.000000e+000
    outer loop
      vertex  1.661761e+001 -2.543643e+000  0.000000e+000
      vertex  1.500000e+001 -2.500000e+000  4.000000e+000
      vertex  1.500000e+001 -2.500000e+000  0.000000e+000
    endloop
  endfacet
  facet normal -2.923711e-001  9.563049e-001  0.000000e+000
    outer loop
      vertex  2.299420e+001  3.584732e+000  0.000000e+000
      vertex  2.454169e+001  4.057847e+000  4.000000e+000
      vertex  2.454169e+001  4.057847e+000  0.000000e+000
    endloop
  endfacet
  facet normal -3.435103e-001  9.391489e-001  0.000000e+000
    outer loop
      vertex  2.454169e+001  4.057847e+000  0.000000e+000
      vertex  2.454169e+001  4.057847e+000  4.000000e+000
      vertex  2.606142e+001  4.613714e+000  4.000000e+000
    endloop
  endfacet
  facet normal -3.435103e-001  9.391489e-001  0.000000e+000
    outer loop
      vertex  2.454169e+001  4.057847e+000  0.000000e+000
      vertex  2.606142e+001  4.613714e+000  4.000000e+000
      vertex  2.606142e+001  4.613714e+000  0.000000e+000
    endloop
  endfacet
  facet normal -3.936497e-001  9.192605e-001  0.000000e+000
    outer loop
      vertex  2.606142e+001  4.613714e+000  0.000000e+000
      vertex  2.606142e+001  4.613714e+000  4.000000e+000
      vertex  2.754897e+001  5.250717e+000  4.000000e+000
    endloop
  endfacet
  facet normal -3.936497e-001  9.192605e-001  0.000000e+000
    outer loop
      vertex  2.606142e+001  4.613714e+000  0.000000e+000
      vertex  2.754897e+001  5.250717e+000  4.000000e+000
      vertex  2.754897e+001  5.250717e+000  0.000000e+000
    endloop
  endfacet
  facet normal -4.426437e-001  8.966976e-001  0.000000e+000
    outer loop
      vertex  2.754897e+001  5.250717e+000  0.000000e+000
      vertex  2.754897e+001  5.250717e+000  4.000000e+000
      vertex  2.900000e+001  5.967002e+000  4.000000e+000
    endloop
  endfacet
  facet normal -4.426437e-001  8.966976e-001  0.000000e+000
    outer loop
      vertex  2.754897e+001  5.250717e+000  0.000000e+000
      vertex  2.900000e+001  5.967002e+000  4.000000e+000
      vertex  2.900000e+001  5.967002e+000  0.000000e+000
    endloop
  endfacet
  facet normal -2.923711e-001  9.563049e-001  0.000000e+000
    outer loop
      vertex  2.454169e+001  4.057847e+000  4.000000e+000
      vertex  2.299420e+001  3.584732e+000  0.000000e+000
      vertex  2.299420e+001  3.584732e+000  4.000000e+000
    endloop
  endfacet
  facet normal -2.403818e-001  9.706784e-001  0.000000e+000
    outer loop
      vertex  2.299420e+001  3.584732e+000  4.000000e+000
      vertex  2.299420e+001  3.584732e+000  0.000000e+000
      vertex  2.142345e+001  3.195747e+000  0.000000e+000
    endloop
  endfacet
  facet normal -2.403818e-001  9.706784e-001  0.000000e+000
    outer loop
      vertex  2.299420e+001  3.584732e+000  4.000000e+000
      vertex  2.142345e+001  3.195747e+000  0.000000e+000
      vertex  2.142345e+001  3.195747e+000  4.000000e+000
    endloop
  endfacet
  facet normal -1.876928e-001  9.822278e-001  0.000000e+000
    outer loop
      vertex  2.142345e+001  3.195747e+000  4.000000e+000
      vertex  2.142345e+001  3.195747e+000  0.000000e+000
      vertex  1.983401e+001  2.892023e+000  0.000000e+000
    endloop
  endfacet
  facet normal -1.876928e-001  9.822278e-001  0.000000e+000
    outer loop
      vertex  2.142345e+001  3.195747e+000  4.000000e+000
      vertex  1.983401e+001  2.892023e+000  0.000000e+000
      vertex  1.983401e+001  2.892023e+000  4.000000e+000
    endloop
  endfacet
  facet normal -1.344576e-001  9.909194e-001  0.000000e+000
    outer loop
      vertex  1.983401e+001  2.892023e+000  4.000000e+000
      vertex  1.983401e+001  2.892023e+000  0.000000e+000
      vertex  1.823051e+001  2.674444e+000  0.000000e+000
    endloop
  endfacet
  facet normal -1.344576e-001  9.909194e-001  0.000000e+000
    outer loop
      vertex  1.983401e+001  2.892023e+000  4.000000e+000
      vertex  1.823051e+001  2.674444e+000  0.000000e+000
      vertex  1.823051e+001  2.674444e+000  4.000000e+000
    endloop
  endfacet
  facet normal -8.083146e-002  9.967278e-001  0.000000e+000
    outer loop
      vertex  1.823051e+001  2.674444e+000  4.000000e+000
      vertex  1.823051e+001  2.674444e+000  0.000000e+000
      vertex  1.661761e+001  2.543643e+000  0.000000e+000
    endloop
  endfacet
  facet normal -8.083146e-002  9.967278e-001  0.000000e+000
    outer loop
      vertex  1.823051e+001  2.674444e+000  4.000000e+000
      vertex  1.661761e+001  2.543643e+000  0.000000e+000
      vertex  1.661761e+001  2.543643e+000  4.000000e+000
    endloop
  endfacet
  facet normal -2.696998e-002  9.996362e-001  0.000000e+000
    outer loop
      vertex  1.661761e+001  2.543643e+000  4.000000e+000
      vertex  1.661761e+001  2.543643e+000  0.000000e+000
      vertex  1.500000e+001  2.500000e+000  0.000000e+000
    endloop
  endfacet
  facet normal -2.696998e-002  9.996362e-001  0.000000e+000
    outer loop
      vertex  1.661761e+001  2.543643e+000  4.000000e+000
      vertex  1.500000e+001  2.500000e+000  0.000000e+000
      vertex  1.500000e+001  2.500000e+000  4.000000e+000
    endloop
  endfacet
endsolid CATIA STL
